<svg fill="none" height="84" width="92" xmlns="http://www.w3.org/2000/svg"><mask id="a" height="84" maskUnits="userSpaceOnUse" width="87" x="0" y="0"><path clip-rule="evenodd" d="M.104 0h85.944v84H.104z" fill="#fff" fill-rule="evenodd"/></mask><path clip-rule="evenodd" d="M18.917 52.645l5.843 1.938 8.61 3.589 8.894 1.259 8.33.952 3.4 1.271 1.76 1.766.463 3.051.439 1.2 4.923.462 12.336-7.75V4.667H38.787V22.53H19.87l-1.566.361v29.505z" fill="#00d8a0" fill-rule="evenodd"/><path d="M42.57 10.267h5.056v5.6h-5.055zm0 14.933h5.056v5.6h-5.055zm0 13.067h5.056v5.6h-5.055zm0 14.933h5.056v5.6h-5.055zm10.112-42.933h5.056v5.6h-5.056zm0 14.933h5.056v5.6h-5.056zm0 13.067h5.056v5.6h-5.056zm0 14.933h6.067v5.6h-6.067zm11.122-42.933h5.056v5.6h-5.056zm0 14.933h5.056v5.6h-5.056zm0 13.067h5.056v5.6h-5.056zm0 14.933h5.056v5.6h-5.056zM22.349 28h16.177v4.667H22.35zm0 10.267h16.177v4.666H22.35zm0 10.266h16.177V53.2H22.35z" fill="#00343d"/><path d="M47.784 15.373c0 .157-.138.284-.307.284h-3.89c-.17 0-.307-.127-.307-.284v-4.638c0-.157.136-.284.307-.284h3.89c.17 0 .307.127.307.284zm1.431-5.274c0-.562-.48-1.018-1.07-1.018h-5.227c-.59 0-1.07.456-1.07 1.018v5.91c0 .273.114.53.317.723.203.19.47.295.753.295h5.227c.59 0 1.07-.456 1.07-1.018zm8.391 5.274c0 .157-.138.284-.307.284h-3.89c-.17 0-.307-.127-.307-.284v-4.638c0-.157.137-.284.307-.284h3.89c.17 0 .307.127.307.284zm1.431-5.274c0-.562-.48-1.018-1.07-1.018H52.74c-.59 0-1.07.456-1.07 1.018v5.91c0 .562.48 1.018 1.07 1.018h5.227c.59 0 1.07-.456 1.07-1.018zm9.619 5.274c0 .157-.138.284-.307.284h-3.89c-.17 0-.307-.127-.307-.284v-4.638c0-.157.137-.284.307-.284h3.89c.17 0 .307.127.307.284zm1.431-5.274c0-.562-.48-1.018-1.07-1.018H63.79c-.59 0-1.07.456-1.07 1.018v5.91c0 .562.48 1.018 1.07 1.018h5.227c.59 0 1.07-.456 1.07-1.018zM47.784 30.13c0 .157-.138.284-.307.284h-3.89c-.17 0-.307-.127-.307-.284v-4.638c0-.157.136-.284.307-.284h3.89c.17 0 .307.127.307.284zm1.431-5.274c0-.562-.48-1.018-1.07-1.018h-5.227c-.59 0-1.07.456-1.07 1.018v5.91c0 .273.114.53.317.723.203.19.47.295.753.295h5.227c.59 0 1.07-.456 1.07-1.018zm8.391 5.274c0 .157-.138.284-.307.284h-3.89c-.17 0-.307-.127-.307-.284v-4.638c0-.157.137-.284.307-.284h3.89c.17 0 .307.127.307.284zm1.431-5.274c0-.562-.48-1.018-1.07-1.018H52.74c-.59 0-1.07.456-1.07 1.018v5.91c0 .562.48 1.018 1.07 1.018h5.227c.59 0 1.07-.456 1.07-1.018zm9.619 5.274c0 .157-.138.284-.307.284h-3.89c-.17 0-.307-.127-.307-.284v-4.638c0-.157.137-.284.307-.284h3.89c.17 0 .307.127.307.284zm1.431-5.274c0-.562-.48-1.018-1.07-1.018H63.79c-.59 0-1.07.456-1.07 1.018v5.91c0 .562.48 1.018 1.07 1.018h5.227c.59 0 1.07-.456 1.07-1.018zM47.784 43.752c0 .156-.138.283-.307.283h-3.89c-.17 0-.307-.127-.307-.283v-4.639c0-.156.136-.283.307-.283h3.89c.17 0 .307.127.307.283zm1.431-5.274c0-.562-.48-1.019-1.07-1.019h-5.227c-.59 0-1.07.457-1.07 1.019v5.91c0 .273.114.53.317.722.203.19.47.295.753.295h5.227c.59 0 1.07-.456 1.07-1.018zm8.391 5.274c0 .156-.138.283-.307.283h-3.89c-.17 0-.307-.127-.307-.283v-4.639c0-.156.137-.283.307-.283h3.89c.17 0 .307.127.307.283zm1.431-5.274c0-.562-.48-1.019-1.07-1.019H52.74c-.59 0-1.07.457-1.07 1.019v5.91c0 .561.48 1.017 1.07 1.017h5.227c.59 0 1.07-.456 1.07-1.018zm9.619 5.274c0 .156-.138.283-.307.283h-3.89c-.17 0-.307-.127-.307-.283v-4.639c0-.156.137-.283.307-.283h3.89c.17 0 .307.127.307.283zm1.431-5.274c0-.562-.48-1.019-1.07-1.019H63.79c-.59 0-1.07.457-1.07 1.019v5.91c0 .561.48 1.017 1.07 1.017h5.227c.59 0 1.07-.456 1.07-1.018zm-1.431 20.03c0 .157-.138.284-.307.284h-3.89c-.17 0-.307-.127-.307-.284V53.87c0-.156.137-.284.307-.284h3.89c.17 0 .307.128.307.284zm1.431-5.274c0-.561-.48-1.018-1.07-1.018H63.79c-.59 0-1.07.457-1.07 1.019v5.909c0 .562.48 1.018 1.07 1.018h5.227c.59 0 1.07-.456 1.07-1.018z" clip-rule="evenodd" fill="#fff" fill-rule="evenodd"/><g mask="url(#a)"><path clip-rule="evenodd" d="M12.054 53.327c0-.157.138-.284.307-.284h2.367a26.15 26.15 0 013.488.239l.081.011c.493.068.978.151 1.459.245l.67.14c.197.044.392.088.586.137l.103.025c1.52.386 3.003.91 4.408 1.558l.103.047c.201.096.38.182.556.27l.16.08c.218.11.432.221.643.337.54.293 1.101.574 1.663.832a27.07 27.07 0 007.709 2.205l13.937 1.491c2.729.367 4.817 2.394 5.09 4.931l.08.767a.27.27 0 01-.088.23.337.337 0 01-.247.081l-24.882-2.254a.737.737 0 00-.503.14.633.633 0 00-.253.44c-.038.358.242.676.622.71l25.984 2.355c.07.01.098.016.128.017l5.215.271c.021.003.043 0 .064 0l.03.001a.935.935 0 00.324-.104l17.46-10.869a3.582 3.582 0 012.567-.481c.898.161 1.675.636 2.186 1.336.966 1.318.724 3.115-.563 4.18L66.254 76.844a11.646 11.646 0 01-5.273 2.2l-26.813 3.591a6.096 6.096 0 01-.909.067c-.58 0-1.177-.077-1.778-.23l-19.23-6.771a.285.285 0 01-.197-.265zm25.583.408v3.944c0 .08-.037.16-.103.212a.32.32 0 01-.204.072l-.035-.002-.744-.08a26.667 26.667 0 01-2.579-.472 25.243 25.243 0 01-6.282-2.395 26.872 26.872 0 00-.674-.353l-1.343-.677a.275.275 0 01-.15-.319.303.303 0 01.297-.214h11.51c.17 0 .307.128.307.284zm-.307-1.58H23.032c-.17 0-.307-.129-.307-.284v-2.228c0-.156.137-.283.307-.283H37.33c.17 0 .307.127.307.284v2.227c0 .155-.137.283-.307.283zm.307-12.458v2.228c0 .156-.137.283-.307.283H23.032c-.17 0-.307-.127-.307-.283v-2.227c0-.157.137-.284.307-.284H37.33c.17 0 .307.127.307.283zm0-9.946v2.226c0 .157-.137.284-.307.284H23.032c-.17 0-.307-.127-.307-.284v-2.226c0-.155.137-.283.307-.283H37.33c.17 0 .307.128.307.283zm-19.243-6.236c0-.156.138-.284.307-.284h18.63c.169 0 .306.128.306.284v4.371c0 .157-.137.284-.307.284H22.257c-.508 0-.92.386-.92.86v3.67c0 .474.412.86.92.86H37.33c.17 0 .307.127.307.284v3.988c0 .156-.137.284-.307.284H22.257c-.508 0-.92.385-.92.858v3.673c0 .473.412.859.92.859H37.33c.17 0 .307.127.307.284v3.988c0 .157-.137.284-.307.284H22.257c-.508 0-.92.385-.92.858v3.26c0 .087-.043.17-.116.223a.32.32 0 01-.26.053l-.378-.08a22.84 22.84 0 00-.653-.13l-1.284-.219a.29.29 0 01-.252-.279zm3.997-4.897c0-.157.137-.284.307-.284h9.333c.17 0 .307.127.307.284v3.033c0 .156-.137.284-.307.284h-9.333c-.17 0-.307-.128-.307-.284zm25.43 35.29v4.52c0 .157-.138.284-.307.284h-3.178l-.692-.07c-.155-.016-.273-.138-.273-.282v-4.452c0-.156.138-.284.307-.284h3.836c.169 0 .306.128.306.284zm5.771 4.52v-4.52c0-.156.137-.284.307-.284h3.836c.17 0 .307.128.307.284v4.52c0 .157-.138.284-.307.284h-3.836c-.17 0-.307-.127-.307-.284zM39.025 5.461c0-.157.137-.284.307-.284h32.97c.168 0 .306.127.306.284v54.382a.278.278 0 01-.136.235l-11.1 6.91a.31.31 0 01-.171.048h-.017l-4.014-.208c-.151-.008-.274-.117-.287-.256l-.12-1.112a6.47 6.47 0 00-1.084-2.957 6.947 6.947 0 00-1.373-1.5l-.607-.497a.27.27 0 01-.084-.314.306.306 0 01.287-.182h4.485c.574 0 1.042-.436 1.042-.973V53.3c0-.537-.468-.973-1.042-.973h-5.141c-.573 0-1.041.436-1.041.973v6.082c0 .088-.046.171-.122.226s-.173.072-.267.047l-.388-.098a8.537 8.537 0 00-.942-.184l-1.007-.108a.291.291 0 01-.271-.282V53.3c0-.537-.468-.974-1.041-.974h-5.141c-.575 0-1.042.437-1.042.974v4.845c0 .08-.037.158-.104.212a.325.325 0 01-.239.07l-2.345-.252c-.155-.016-.271-.137-.271-.281zM12.054 77.5c0-.085.042-.166.113-.22a.314.314 0 01.254-.058l.416.077 18.242 6.416a8.413 8.413 0 003.362.197L61.18 80.33c2.181-.326 4.238-1.182 5.945-2.475L84.428 63.38c1.81-1.494 2.149-4.023.788-5.884-1.487-2.028-4.476-2.568-6.668-1.2l-4.075 2.536c-.094.057-.215.064-.315.015s-.163-.145-.163-.25V5.462c0-.157.138-.284.307-.284h.568c.609 0 1.103-.461 1.103-1.029V1.03C75.973.462 75.48 0 74.87 0h-8.35c-.382 0-.694.291-.694.65 0 .357.312.648.694.648h7.759c.17 0 .307.127.307.284v2.015c0 .156-.137.283-.307.283H36.951c-.17 0-.307-.127-.307-.283V1.58c0-.157.138-.284.307-.284h21.38c.384 0 .694-.29.694-.648 0-.359-.31-.65-.694-.65H36.36c-.608 0-1.102.463-1.102 1.03v3.12c0 .567.494 1.028 1.102 1.028h.971c.17 0 .307.127.307.284v16.19c0 .156-.137.284-.307.284h-3.299c-.17 0-.307-.128-.307-.284v-3.286c0-.732-.638-1.328-1.423-1.328h-9.873c-.785 0-1.423.596-1.423 1.328v3.286c0 .156-.138.284-.307.284H18.51c-.829 0-1.504.628-1.504 1.402V51.53a.277.277 0 01-.097.208.284.284 0 01-.23.075l-.326-.02a29.666 29.666 0 00-1.626-.048H12.36c-.17 0-.307-.127-.307-.284v-.915c0-2.048-1.789-3.713-3.988-3.713H4.091c-2.198 0-3.987 1.665-3.987 3.713v17.368c0 .357.312.648.694.648.383 0 .693-.29.693-.648V50.547c0-1.331 1.167-2.414 2.6-2.414h3.975c1.434 0 2.6 1.083 2.6 2.414v27.365c0 1.331-1.166 2.414-2.6 2.414H4.091c-1.433 0-2.6-1.083-2.6-2.414v-2.385c0-.359-.31-.65-.693-.65-.382 0-.694.291-.694.65v2.385c0 2.048 1.789 3.713 3.988 3.713h3.974c2.2 0 3.988-1.665 3.988-3.713z" fill="#fff" fill-rule="evenodd"/></g></svg>