<svg width="90" height="90" fill="none" xmlns="http://www.w3.org/2000/svg"><mask id="a" style="mask-type:alpha" maskUnits="userSpaceOnUse" x="37" y="39" width="6" height="6"><path fill-rule="evenodd" clip-rule="evenodd" d="M39.679 39.8c-1.073 0-1.94.873-1.94 1.95v1.3c0 1.078.867 1.95 1.94 1.95h1.292a1.943 1.943 0 001.939-1.95v-1.3c0-1.077-.867-1.95-1.939-1.95h-1.292z" fill="#fff"/></mask><g mask="url(#a)"><path fill-rule="evenodd" clip-rule="evenodd" d="M32.738 50H47.91V34.8H32.738V50z" fill="#0BD8A2"/></g><mask id="b" style="mask-type:alpha" maskUnits="userSpaceOnUse" x="9" y="8" width="7" height="8"><path fill-rule="evenodd" clip-rule="evenodd" d="M9.294 11.85a3.242 3.242 0 003.232 3.251 3.242 3.242 0 003.233-3.251 3.242 3.242 0 00-3.233-3.25 3.242 3.242 0 00-3.232 3.25z" fill="#fff"/></mask><g mask="url(#b)"><path fill-rule="evenodd" clip-rule="evenodd" d="M4.294 20.1h16.465V3.6H4.294v16.5z" fill="#fff"/></g><mask id="c" style="mask-type:alpha" maskUnits="userSpaceOnUse" x="66" y="8" width="7" height="8"><path fill-rule="evenodd" clip-rule="evenodd" d="M66.182 11.85a3.242 3.242 0 003.233 3.251 3.24 3.24 0 003.232-3.251 3.24 3.24 0 00-3.232-3.25 3.242 3.242 0 00-3.233 3.25z" fill="#fff"/></mask><g mask="url(#c)"><path fill-rule="evenodd" clip-rule="evenodd" d="M61.182 20.1h16.466V3.6H61.182v16.5z" fill="#0BD8A2"/></g><mask id="d" style="mask-type:alpha" maskUnits="userSpaceOnUse" x="36" y="7" width="9" height="9"><path fill-rule="evenodd" clip-rule="evenodd" d="M38.385 7.3c-1.071 0-1.94.874-1.94 1.95v3.901c0 1.077.869 1.95 1.94 1.95h3.879a1.944 1.944 0 001.938-1.95V9.25c0-1.076-.867-1.95-1.938-1.95h-3.88z" fill="#fff"/></mask><g mask="url(#d)"><path fill-rule="evenodd" clip-rule="evenodd" d="M31.445 20.1h17.757V2.3H31.445v17.8z" fill="#0BD8A2"/></g><mask id="e" style="mask-type:alpha" maskUnits="userSpaceOnUse" x="68" y="28" width="14" height="44"><path fill-rule="evenodd" clip-rule="evenodd" d="M69.065 28.1h-.012c-.096.001-.191.01-.284.026v5.461l6.063 12.87.777 1.651 2.028 4.302c.12.262.18.545.182.832v5.474a2.03 2.03 0 01-.324 1.079l-4.526 6.811a2.043 2.043 0 00-.322 1.079v3.965h3.88v-3.965c.003-.383.115-.757.322-1.079l4.525-6.811c.208-.322.321-.697.322-1.079v-5.474c0-.287-.062-.57-.179-.832l-2.03-4.302-.776-1.651-8.223-17.446a1.562 1.562 0 00-1.418-.911h-.005z" fill="#fff"/></mask><g mask="url(#e)"><path fill-rule="evenodd" clip-rule="evenodd" d="M63.769 76.65h22.929V23.1H63.769v53.55z" fill="#0BD8A2"/></g><mask id="f" style="mask-type:alpha" maskUnits="userSpaceOnUse" x="53" y="28" width="25" height="44"><path fill-rule="evenodd" clip-rule="evenodd" d="M64.89 28.464a1.49 1.49 0 00-.426.547l-2.16 4.576-8.869 18.823a2.06 2.06 0 00-.182.832v5.474c.004.382.116.757.322 1.079l2.767 4.159 1.281 1.937.478.715c.208.322.32.696.324 1.079v3.965h14.222v-3.965c.004-.383.116-.757.322-1.079l4.526-6.811a2.03 2.03 0 00.324-1.079v-5.474a2.027 2.027 0 00-.182-.832l-2.028-4.302-.777-1.651-6.063-12.87v14.247a3.56 3.56 0 011.576 1.054 3.884 3.884 0 011.01 2.612c0 2.153-1.738 3.9-3.879 3.9-2.14 0-3.88-1.747-3.88-3.9a3.865 3.865 0 011.94-3.367c.205-.121.423-.22.646-.299v-19.37a1.449 1.449 0 00-.646-.324 1.46 1.46 0 00-.646.324z" fill="#fff"/></mask><g mask="url(#f)"><path fill-rule="evenodd" clip-rule="evenodd" d="M48.253 76.65h34.565V23.139H48.253V76.65z" fill="#0BD8A2"/></g><mask id="g" style="mask-type:alpha" maskUnits="userSpaceOnUse" x="57" y="71" width="21" height="7"><path fill-rule="evenodd" clip-rule="evenodd" d="M59.071 71a2.21 2.21 0 00-1.94 2.398v3.994H77.82v-3.994A2.207 2.207 0 0075.88 71H59.071z" fill="#fff"/></mask><g mask="url(#g)"><path fill-rule="evenodd" clip-rule="evenodd" d="M52.123 82.392h30.705V66H52.123v16.392z" fill="#0BD8A2"/></g><mask id="h" style="mask-type:alpha" maskUnits="userSpaceOnUse" x="57" y="71" width="17" height="7"><path fill-rule="evenodd" clip-rule="evenodd" d="M58.708 71c-.872 0-1.577 1.071-1.577 2.398v3.994h16.81v-3.994c0-1.327-.705-2.398-1.577-2.398H58.708z" fill="#fff"/></mask><g mask="url(#h)"><path fill-rule="evenodd" clip-rule="evenodd" d="M52.132 82.392h26.809V66H52.132v16.392z" fill="#0BD8A2"/></g><mask id="i" style="mask-type:alpha" maskUnits="userSpaceOnUse" x="57" y="76" width="21" height="7"><path fill-rule="evenodd" clip-rule="evenodd" d="M57.131 76.2v4.551c0 1.075.869 1.95 1.94 1.95h16.808c1.071 0 1.94-.875 1.94-1.95V76.2H57.131z" fill="#fff"/></mask><g mask="url(#i)"><path fill-rule="evenodd" clip-rule="evenodd" d="M52.132 87.7h30.687V71.2H52.132v16.5z" fill="#0BD8A2"/></g><mask id="j" style="mask-type:alpha" maskUnits="userSpaceOnUse" x="57" y="76" width="17" height="7"><path fill-rule="evenodd" clip-rule="evenodd" d="M57.131 76.2v4.551a1.792 1.792 0 001.577 1.95h13.656a1.792 1.792 0 001.577-1.95V76.2h-16.81z" fill="#fff"/></mask><g mask="url(#j)"><path fill-rule="evenodd" clip-rule="evenodd" d="M52.124 87.7h26.824V71.2H52.124v16.5z" fill="#0BD8A2"/></g><mask id="k" style="mask-type:alpha" maskUnits="userSpaceOnUse" x="68" y="34" width="7" height="15"><path fill-rule="evenodd" clip-rule="evenodd" d="M68.769 47.834a3.41 3.41 0 011.511.989c.182-.066.375-.118.57-.17a23.594 23.594 0 014.098-1.482l-6.179-13.118v13.781z" fill="#fff"/></mask><g mask="url(#k)"><path fill-rule="evenodd" clip-rule="evenodd" d="M63.769 53.823h16.18V29.054h-16.18v24.769z" fill="#0BD8A2"/></g><g mask="url(#l)"><path fill-rule="evenodd" clip-rule="evenodd" d="M64.464 33.203h10.13V23.157h-10.13v10.046z" fill="#fff"/></g><mask id="l" style="mask-type:alpha" maskUnits="userSpaceOnUse" x="68" y="28" width="2" height="1"><path fill-rule="evenodd" clip-rule="evenodd" d="M69.053 28.1c-.096.001-.19.01-.284.026v.338c.18-.155.393-.264.623-.317a1.5 1.5 0 00-.327-.047h-.012z" fill="#fff"/></mask><g mask="url(#l)"><path fill-rule="evenodd" clip-rule="evenodd" d="M63.769 33.464h10.624V23.1H63.769v10.364z" fill="#fff"/></g><g mask="url(#n)"><path fill-rule="evenodd" clip-rule="evenodd" d="M64.84 33.416h10.15V23.313H64.84v10.103z" fill="#fff"/></g><mask id="m" style="mask-type:alpha" maskUnits="userSpaceOnUse" x="53" y="28" width="14" height="55"><path fill-rule="evenodd" clip-rule="evenodd" d="M64.89 28.464a1.5 1.5 0 00-.426.545l-2.16 4.578-8.869 18.823a2.06 2.06 0 00-.182.832v5.474c.004.382.116.757.322 1.079l2.767 4.159 1.281 1.937.478.715c.208.322.32.696.324 1.079v3.359a2.335 2.335 0 00-1.294 2.354v7.353a1.792 1.792 0 001.577 1.95h3.878a1.79 1.79 0 01-1.576-1.95v-7.353a2.333 2.333 0 011.294-2.354v-3.359a2.045 2.045 0 00-.324-1.079l-.478-.715-1.28-1.937-2.767-4.159a2.038 2.038 0 01-.324-1.079v-5.474a2.06 2.06 0 01.183-.832l8.868-18.823v-5.123a1.429 1.429 0 00-.646-.324c-.238.05-.46.163-.646.324z" fill="#fff"/></mask><g mask="url(#m)"><path fill-rule="evenodd" clip-rule="evenodd" d="M48.253 87.7h22.93V23.139h-22.93V87.7z" fill="#fff"/></g><mask id="n" style="mask-type:alpha" maskUnits="userSpaceOnUse" x="66" y="8" width="6" height="8"><path fill-rule="evenodd" clip-rule="evenodd" d="M67.531 9.196a3.26 3.26 0 00-1.213 3.648 3.239 3.239 0 003.097 2.257 3.206 3.206 0 001.94-.665 3.23 3.23 0 010-5.172 3.23 3.23 0 00-1.96-.664 3.21 3.21 0 00-1.864.596z" fill="#fff"/></mask><g mask="url(#n)"><path fill-rule="evenodd" clip-rule="evenodd" d="M61.163 20.1h15.191V3.6h-15.19v16.5z" fill="#fff"/></g><mask id="o" style="mask-type:alpha" maskUnits="userSpaceOnUse" x="36" y="7" width="7" height="9"><path fill-rule="evenodd" clip-rule="evenodd" d="M38.385 7.3c-1.071 0-1.94.874-1.94 1.95v3.901c0 .516.205 1.012.567 1.377a1.93 1.93 0 001.373.573h3.879a1.944 1.944 0 01-1.94-1.95V9.25c0-1.076.868-1.95 1.94-1.95h-3.88z" fill="#fff"/></mask><g mask="url(#o)"><path fill-rule="evenodd" clip-rule="evenodd" d="M31.445 20.1h15.818V2.3H31.445v17.8z" fill="#fff"/></g><mask id="p" style="mask-type:alpha" maskUnits="userSpaceOnUse" x="9" y="8" width="6" height="8"><path fill-rule="evenodd" clip-rule="evenodd" d="M10.641 9.196a3.261 3.261 0 00-1.211 3.648 3.236 3.236 0 003.096 2.257 3.206 3.206 0 001.939-.665 3.231 3.231 0 010-5.172 3.224 3.224 0 00-3.824-.068z" fill="#fff"/></mask><g mask="url(#p)"><path fill-rule="evenodd" clip-rule="evenodd" d="M4.274 20.1h15.19V3.6H4.274v16.5z" fill="#fff"/></g><path fill-rule="evenodd" clip-rule="evenodd" d="M43.41 13.15a1.15 1.15 0 01-1.146 1.15h-3.879a1.15 1.15 0 01-1.147-1.15v-3.9c0-.634.515-1.15 1.147-1.15h3.88a1.15 1.15 0 011.145 1.15v3.9zM12.525 14.3a2.447 2.447 0 01-2.438-2.45c0-1.35 1.094-2.45 2.438-2.45 1.345 0 2.44 1.1 2.44 2.45a2.448 2.448 0 01-2.44 2.45zm56.89-4.9c1.345 0 2.44 1.1 2.44 2.45a2.447 2.447 0 01-2.44 2.45 2.448 2.448 0 01-2.44-2.45c0-1.35 1.095-2.45 2.44-2.45zm-20.387 3.893c.203.048.4.107.593.175l.226.069a.699.699 0 00.14.054h.002l.161.06c.315.098.617.207.95.34.242.095.444.175.728.299.122.042.276.108.435.176.316.138.592.259.934.436.602.269 1.223.588 1.821.938.234.114.49.263.734.428.334.188.69.41 1.065.67l.162.098c.222.133.44.279.65.436.076.069.106.095.14.117l.098.075c.406.278.77.55 1.106.835.357.267.712.56 1.13.935.333.264.662.572.963.862l.12.119c.328.306.645.625 1.003 1.024.315.316.634.663.943 1.034a.78.78 0 00.537.283.775.775 0 00.578-.182.806.806 0 00.101-1.13 17.98 17.98 0 00-1.005-1.106 17.016 17.016 0 00-1.073-1.093l-.082-.082a14.979 14.979 0 00-1.058-.95c-.435-.39-.828-.716-1.166-.963a13.69 13.69 0 00-1.136-.857l-.083-.065a8.703 8.703 0 00-.9-.622l-.12-.07c-.42-.29-.812-.533-1.128-.71a7.151 7.151 0 00-.817-.48 18.991 18.991 0 00-1.889-.97 14.377 14.377 0 00-.986-.461L50.892 12h14.5l.062.428c.285 1.973 1.994 3.464 3.974 3.469h.01c1.976 0 3.687-1.482 3.981-3.45.294-1.971-.914-3.895-2.81-4.476-1.893-.577-3.963.34-4.81 2.142l-.135.287H44.996V9.25a2.745 2.745 0 00-2.732-2.75h-3.879a2.745 2.745 0 00-2.733 2.75v1.15H16.28l-.136-.285c-.85-1.794-2.92-2.707-4.8-2.125-1.89.582-3.093 2.503-2.799 4.469.294 1.963 2.001 3.44 3.972 3.44h.007c1.981-.004 3.686-1.496 3.966-3.47l.062-.43h13.562l-2.238.96c-6.16 2.64-11.258 7.076-14.743 12.826l-.827 1.453a34.758 34.758 0 00-1.577 3.419l-.61 1.677a36.582 36.582 0 00-.53 1.79l-.138.552h.012l-.028.203-.032-.006-.424 2.042-.044.246-.159 1.102a35.79 35.79 0 00-.24 2.812c-.042.839-.04 1.723.001 2.784l.03.452c.053.796.107 1.618.223 2.388a31.668 31.668 0 003.451 10.715l1.007 1.79 1.127 1.685c.301.449.635.867.99 1.31.195.247.393.494.583.746.38.466.804.92 1.227 1.372l.495.534c.391.399.816.789 1.241 1.18.212.195.423.39.632.587l1.471 1.18a.81.81 0 00.413.177c.232-.002.523-.115.68-.331a.804.804 0 00.104-.75.784.784 0 00-.247-.384l-1.379-1.097a72.566 72.566 0 00-.679-.63 30.314 30.314 0 01-1.117-1.064 51.272 51.272 0 00-.614-.67 24.8 24.8 0 01-1.029-1.15 24.75 24.75 0 00-.553-.707 17.467 17.467 0 01-.938-1.246l-1.055-1.58-.959-1.69a30.107 30.107 0 01-3.28-10.19c-.106-.706-.152-1.376-.202-2.085l-.039-.544a30.509 30.509 0 010-2.743 33.49 33.49 0 01.228-2.677l.52-2.83.251-1.054c.16-.584.32-1.152.494-1.678l.63-1.725c.321-.863.771-1.765 1.208-2.638l.454-.89c.002-.003.124-.231.17-.306l.423-.71c4.53-7.445 12.024-12.598 20.565-14.142l.59-.106v.792a2.745 2.745 0 002.732 2.75h3.88a2.745 2.745 0 002.731-2.75v-.754l.565.074c.088.012.174.029.26.049.08.02.16.033.238.043.243.037.464.084.683.143l.165.04a.607.607 0 00.098.016l.251.056.108.029c.224.038.456.097.682.174.03.01.07.02.111.026.265.05.466.106.661.179l.098.035c.037.013.074.023.112.033z" fill="#DAFFF5"/><path fill-rule="evenodd" clip-rule="evenodd" d="M38.53 41.75a1.15 1.15 0 011.147-1.15h1.293a1.15 1.15 0 011.146 1.15v1.3c0 .635-.514 1.15-1.146 1.15h-1.293a1.15 1.15 0 01-1.147-1.15v-1.3zm-1.585 1.3a2.744 2.744 0 002.732 2.75h1.293a2.744 2.744 0 002.732-2.75v-1.3A2.738 2.738 0 0040.97 39h-1.293a2.7 2.7 0 00-1.93.804 2.741 2.741 0 00-.802 1.947v1.299zm43.959 15.66c0 .227-.066.446-.19.635l-4.527 6.82c-.298.452-.455.98-.455 1.525v2.51H59.217v-2.51c0-.546-.159-1.074-.459-1.526l-4.526-6.816a1.17 1.17 0 01-.186-.646v-5.464c0-.168.038-.337.11-.49l11.022-23.4c.153-.32.52-.483.888-.4.37.083.616.38.616.737v17.187l-.374.097c-2.272.59-3.763 2.801-3.467 5.143.295 2.342 2.288 4.108 4.634 4.108 2.346 0 4.338-1.766 4.634-4.108.296-2.342-1.194-4.553-3.467-5.143l-.374-.097V29.686c.051-.4.301-.671.625-.743a.809.809 0 01.848.351l11.052 23.457c.071.148.11.315.111.481v5.478zM77.026 75.4h-19.1v-2.45c0-.635.513-1.15 1.145-1.15H75.88a1.15 1.15 0 011.147 1.15v2.45zm0 5.351A1.15 1.15 0 0175.88 81.9H59.071a1.15 1.15 0 01-1.146-1.149V77h19.101v3.751zM67.476 48.4a3.097 3.097 0 013.085 3.101 3.096 3.096 0 01-3.086 3.099 3.096 3.096 0 01-3.086-3.099 3.097 3.097 0 013.086-3.101zm15.014 4.838a2.792 2.792 0 00-.265-1.178l-11.02-23.4a2.397 2.397 0 00-2.149-1.36h-.003c-.462 0-.912.137-1.3.396l-.278.185-.277-.185a2.358 2.358 0 00-1.943-.309 2.376 2.376 0 00-1.508 1.277L52.724 52.063a2.768 2.768 0 00-.263 1.175v5.472c0 .545.16 1.074.46 1.527l4.524 6.816c.126.189.193.411.191.641v2.924l-.2.15a2.753 2.753 0 00-1.097 2.184v7.799a2.743 2.743 0 002.732 2.749H75.88a2.745 2.745 0 002.733-2.749V72.95a2.748 2.748 0 00-1.094-2.182l-.2-.151V67.69c0-.228.067-.448.194-.638l4.524-6.817c.298-.451.455-.979.454-1.524v-5.473zM29.839 71.737a.818.818 0 00.499 1.043c.549.174 1.114.332 1.678.489l.884.25 2.588.51c.398.064.813.117 1.127.144a7.3 7.3 0 00.569.07l.222.023c.45.04.906.08 1.345.093a32.15 32.15 0 003.27 0 30.929 30.929 0 002.486-.246c.293-.03.554-.07.83-.115.475-.08.954-.16 1.397-.255a13.02 13.02 0 001.046-.235c.358-.077.68-.16.982-.25l.222-.063c.364-.103.719-.204 1.013-.314a16.5 16.5 0 001.572-.547 22.371 22.371 0 001.518-.627.8.8 0 00.46-.653.81.81 0 00-.331-.728.786.786 0 00-.788-.074c-.461.212-.92.4-1.42.585-.384.153-.87.338-1.486.518-.332.123-.695.224-1.097.336l-.124.034a9.262 9.262 0 01-.836.213l-.105.026a12.15 12.15 0 01-.954.213c-.408.092-.83.163-1.244.233l-.127.02c-.218.036-.44.07-.722.1-.733.105-1.518.184-2.382.237a31.336 31.336 0 01-3.111 0c-.397-.011-.792-.046-1.164-.078l-.322-.032a6.331 6.331 0 01-.487-.061 16.524 16.524 0 01-1.12-.144l-2.497-.503c-.294-.085-.588-.167-.883-.25-.505-.14-1.01-.281-1.51-.44a.79.79 0 00-.999.477zm15.239.18v-.001.001zm-18.536-1.595a.882.882 0 00.031-.614.744.744 0 00-.146-.225.786.786 0 00-.614-.313.731.731 0 00-.2.028.935.935 0 00-.269.15.895.895 0 00-.22.245.797.797 0 00-.073.602.911.911 0 00.42.49h.003a.761.761 0 00.616.06l.173-.087c.005-.004.038-.029.066-.058l.113-.105c.038-.056.07-.113.1-.173z" fill="#DAFFF5"/></svg>