<svg fill="none" height="90" width="90" xmlns="http://www.w3.org/2000/svg"><mask id="a" height="33" maskUnits="userSpaceOnUse" width="14" x="8" y="48"><path clip-rule="evenodd" d="M8 48.086h13.98V81H8z" fill="#fff" fill-rule="evenodd"/></mask><g clip-rule="evenodd" fill-rule="evenodd"><path d="M78.821 38.303L51.766 65 49 63.47l25.479-25.143a.611.611 0 000-.864l-9.574-9.442a3.43 3.43 0 00-.337-.284 3.615 3.615 0 014.68.26l9.573 9.442a.611.611 0 010 .864z" fill="#0bd8a2"/><path d="M49.86 64l-2.36-6-10.294-1.126-17.03-17.155a.621.621 0 010-.865l9.686-9.744a3.568 3.568 0 00.074-5.014l-.099-.099a1.562 1.562 0 00-1.397-.408 6.797 6.797 0 01-7.014-3.285 7.1 7.1 0 01.147-7.286 7.475 7.475 0 014.01-3.162 6.862 6.862 0 017.025 1.655 6.874 6.874 0 011.864 6.002c-.09.488.05.99.38 1.359l.135.123c.102.105.212.2.331.284a3.498 3.498 0 004.647-.358l7.983-8.028 1.704-1.716a.61.61 0 01.858 0l9.38 9.448a3.568 3.568 0 01-.073 5.014l-.135.136a1.6 1.6 0 01-1.361.432 7.135 7.135 0 00-6.02 2.05 7.088 7.088 0 00-2.1 5.829 7.064 7.064 0 003.277 5.25c.456.284.946.508 1.459.666a7.076 7.076 0 005.775-.728 7.315 7.315 0 003.458-7.164 1.71 1.71 0 01.441-1.42l.11-.111c.122-.121.253-.233.393-.333.116.087.227.182.33.284l9.38 9.448a.62.62 0 010 .864z" fill="#0bd8a2"/><path d="M20.178 39.236a.61.61 0 000 .862l14.94 14.768c.486.375 1.003.71 1.545.998.556.094 1.118.14 1.681.136H40L23.913 40.098a.61.61 0 010-.862l9.836-9.71a3.51 3.51 0 00.074-4.997l-.1-.098a1.606 1.606 0 00-1.418-.406c-2.832.475-5.665-.827-7.122-3.274a6.962 6.962 0 01.15-7.261 7.569 7.569 0 014.07-3.15c.115-.037.232-.056.348-.087a7.217 7.217 0 00-4.082.086 7.568 7.568 0 00-4.072 3.151 6.962 6.962 0 00-.15 7.261c1.457 2.447 4.291 3.75 7.123 3.274a1.606 1.606 0 011.419.406l.1.098a3.51 3.51 0 01-.075 4.997z" fill="#fff"/></g><path d="M49.966 8.713l9.777 9.837a4.3 4.3 0 01-.071 6.024l-.138.137c-.47.462-1.113.7-1.766.657l-.178-.018a6.45 6.45 0 00-5.39 1.811 6.53 6.53 0 00-1.89 5.38 6.077 6.077 0 002.914 4.54 6.205 6.205 0 006.456-.067 6.562 6.562 0 003.13-6.152l-.026-.256a2.436 2.436 0 01.65-2.036l.108-.107a4.227 4.227 0 015.975-.073l9.77 9.832a.735.735 0 010 1.034l-26.53 26.632c.027-.027.01-.037-.04-.045l-.623-.095a1.333 1.333 0 00-.161-.007l-.549.098h-.074a.755.755 0 00-.089.013l-.002-.012a.734.734 0 01.21-.587l26.335-26.51-9.263-9.321a2.793 2.793 0 00-3.812-.053l-.246.242c-.214.287-.276.571-.221.845a7.993 7.993 0 01-3.781 7.794 7.667 7.667 0 01-7.981.063 7.598 7.598 0 01-3.585-5.596 7.997 7.997 0 012.311-6.595 7.883 7.883 0 016.586-2.22.913.913 0 00.694-.182l.184-.177a2.825 2.825 0 00.08-3.958l-9.273-9.325-9.573 9.62a4.298 4.298 0 01-2.992 1.287h-.067a4.08 4.08 0 01-2.92-1.213l-.112-.1a2.33 2.33 0 01-.61-1.992 6.079 6.079 0 00-1.545-5.25 6.007 6.007 0 00-5.136-1.853 6.613 6.613 0 00-4.847 3.13 6.307 6.307 0 00-.137 6.475 6.083 6.083 0 006.013 2.968l.249-.037a2.264 2.264 0 012.009.616l.094.094a4.132 4.132 0 011.198 3 4.35 4.35 0 01-1.266 3.023l-9.569 9.612 16.888 16.993a.733.733 0 01-.015 1.02.717.717 0 01-1.01.008L18.713 40.157a.733.733 0 010-1.035l10.082-10.13a2.897 2.897 0 00.85-2.008 2.693 2.693 0 00-.776-1.95l-.098-.1c-.241-.177-.47-.24-.69-.216l-.11.019c-3.036.52-6.109-.916-7.69-3.615a7.806 7.806 0 01.148-8.026 8.052 8.052 0 015.923-3.788 7.442 7.442 0 016.325 2.29 7.552 7.552 0 011.935 6.48.882.882 0 00.123.65l.093.108.075.065c.463.537 1.214.853 1.988.806a2.859 2.859 0 001.977-.864l10.08-10.13a.716.716 0 011.018 0z" fill="#dafff5"/><g mask="url(#a)"><path clip-rule="evenodd" d="M18.167 48.086h-6.354c-2.103.006-3.807 1.64-3.813 3.657v25.6c.006 2.017 1.71 3.65 3.813 3.657h6.354c1.403-.001 2.692-.741 3.355-1.926.303-.53.46-1.126.458-1.731v-25.6c-.006-2.017-1.71-3.651-3.813-3.657z" fill="#0bd8a2" fill-rule="evenodd"/></g><path clip-rule="evenodd" d="M13.143 48h-1.286c-2.127.006-3.85 1.644-3.857 3.667v25.666c.006 2.023 1.73 3.661 3.857 3.667h1.286c1.419-.001 2.722-.743 3.394-1.931A3.45 3.45 0 0017 77.333V51.668c-.006-2.023-1.73-3.661-3.857-3.667z" fill="#0bd8a2" fill-rule="evenodd"/><path clip-rule="evenodd" d="M23.387 78c-.002.332-.135.658-.387.95l.387.05h1.29c.2-.32.309-.658.323-1z" fill="#fff" fill-rule="evenodd"/><path d="M51.487 79.5c1.606 0 3.183-.41 4.58-1.19l.298-.173 23.15-14.028a4.108 4.108 0 001.907-2.732 4.026 4.026 0 00-.57-2.97l-.184-.269a4.122 4.122 0 00-4.397-1.486l-.203.062L53.204 64.3c-.343.114-.7.183-1.06.206l-.27.009h-10.98a11.853 11.853 0 00-6.228 1.76l-.347.223-.905.6a.726.726 0 00-.204 1.01.739.739 0 00.927.256l.095-.054.904-.6a10.379 10.379 0 015.375-1.729l.383-.007h10.98c.51 0 1.018-.067 1.51-.2l.292-.09L76.53 58.1c1.033-.355 2.179-.037 2.925.865l.04.059a2.63 2.63 0 01-.585 3.738l-.156.102L55.6 76.893a7.935 7.935 0 01-3.78 1.14l-.333.008H20.235a.732.732 0 00-.735.73c0 .368.276.674.635.722l.1.007z" fill="#dafff5"/><path clip-rule="evenodd" d="M20 50.96v.015c.335.008.67.026 1 .066-.008-.027-.014-.055-.024-.082zM8 52.029h2.845v25.884H8z" fill="#fff" fill-rule="evenodd"/><path d="M18.356 48.09l-.189-.004h-6.354c-1.834 0-3.313 1.418-3.313 3.157 0 .392.34.719.77.719.431 0 .772-.327.772-.72 0-.906.72-1.641 1.626-1.712l.145-.006h6.354c.925 0 1.691.69 1.765 1.577l.006.142v25.6c0 .906-.72 1.642-1.626 1.713l-.145.006h-6.354c-.974 0-1.771-.765-1.771-1.72 0-.391-.34-.718-.771-.718-.43 0-.771.327-.771.719 0 1.679 1.378 3.059 3.124 3.152l.189.005 6.354-.001.189-.004c1.683-.09 3.025-1.376 3.119-2.973l.005-.18v-25.6c0-1.678-1.378-3.058-3.124-3.151z" fill="#dafff5"/><path d="M9.004 61.5a.549.549 0 00-.356.134.538.538 0 00-.11.174.513.513 0 00.09.538c.05.047.108.084.184.114.06.026.125.04.178.04a.547.547 0 00.358-.135.55.55 0 00.145-.29l.006-.076-.006-.074a.62.62 0 00-.067-.202l-.029-.042-.119-.097-.038-.021-.107-.045-.018-.005a1.167 1.167 0 00-.11-.013zm11.212-10h3.403c2.558.004 5.044.845 7.087 2.394l.29.226a10.334 10.334 0 006.481 2.303h6.36a6.815 6.815 0 015.825 3.342l.109.183.122.216c.975 1.811.86 3.836-.301 5.384l-.139.175-.024-.023a.92.92 0 00-.12-.097l-.07-.043c-.116-.067-.23-.096-.366-.048l-.084.038.074.022a1.046 1.046 0 00-.368-.063l-.131.001-.398.226-.119.02-.065.018v-.054a.736.736 0 01.223-.482 3.758 3.758 0 00.54-4.535l-.11-.184a5.374 5.374 0 00-4.596-2.634h-6.361a11.758 11.758 0 01-7.087-2.394l-.29-.226a10.335 10.335 0 00-6.48-2.303h-3.405a.723.723 0 01-.716-.731c0-.405.322-.731.716-.731z" fill="#dafff5"/></svg>