<svg fill="none" height="84" width="93" xmlns="http://www.w3.org/2000/svg"><g clip-rule="evenodd" fill-rule="evenodd"><path d="M28.653 20.106c-.773-.675-2.028-.675-2.802 0l-3.026 2.638c-.774.675-.774 1.768 0 2.443l11.21 9.774c.774.674 2.03.674 2.803 0l3.026-2.639c.774-.674.774-1.768 0-2.442zm34.378 32.666c-.774-.674-2.028-.674-2.802 0l-3.027 2.639c-.773.675-.773 1.768 0 2.443l11.211 9.773c.774.675 2.029.675 2.803 0l3.026-2.638c.774-.675.774-1.769 0-2.443zm-26.194 0c-.773-.674-2.028-.674-2.802 0l-11.21 9.774c-.774.674-.774 1.768 0 2.443l3.026 2.638c.774.675 2.028.675 2.802 0l11.21-9.773c.775-.675.775-1.768 0-2.443zm34.378-32.666c-.774-.675-2.028-.675-2.802 0l-11.21 9.774c-.774.674-.774 1.768 0 2.442l3.026 2.639c.774.674 2.028.674 2.802 0l11.21-9.774c.775-.675.775-1.768 0-2.443zM48.533 34.533c-2.792 0-5.055 2.09-5.055 4.667s2.263 4.667 5.055 4.667 5.056-2.09 5.056-4.667-2.264-4.667-5.056-4.667" fill="#0fd7a1"/><path d="M48.028 43.867c-3.63 0-6.572 2.925-6.572 6.533H54.6c0-3.608-2.943-6.533-6.572-6.533" fill="#0fd7a1"/><g fill="#fff"><path d="M77.734 51.611a28.76 28.76 0 001.817-10.078 28.76 28.76 0 00-1.806-10.048 29.58 29.58 0 00-2.108-4.48l9.155 8.451c3.63 3.351 3.63 8.803 0 12.155l-9.156 8.452a29.614 29.614 0 002.098-4.452zm-21.66 1.905l2.914-2.69a1.22 1.22 0 01.832-.317c.314 0 .61.112.831.317l10.793 9.964a1.029 1.029 0 010 1.535l-2.913 2.69a1.25 1.25 0 01-1.663 0L56.075 55.05a1.038 1.038 0 01-.344-.768c0-.29.122-.562.344-.767zm-20.98 17.306a36.016 36.016 0 0010.914 1.676c3.74 0 7.414-.564 10.918-1.677a34.843 34.843 0 004.822-1.938l-9.157 8.453c-3.63 3.351-9.537 3.351-13.166 0l-9.157-8.453a34.87 34.87 0 004.825 1.939zm-3.729-19.996c.221-.205.517-.317.831-.317.315 0 .61.112.832.317l2.913 2.69a1.029 1.029 0 010 1.535l-10.793 9.964c-.443.409-1.22.409-1.663 0l-2.913-2.69a1.04 1.04 0 01-.344-.767c0-.29.122-.563.344-.768zm-17.087-19.36a28.766 28.766 0 00-1.813 10.067c0 3.462.614 6.861 1.826 10.103a29.567 29.567 0 002.091 4.43L7.224 47.61c-1.758-1.624-2.726-3.782-2.726-6.078 0-2.295.968-4.454 2.726-6.077l9.156-8.451a29.611 29.611 0 00-2.102 4.461zm21.663-1.915l-2.913 2.69c-.443.41-1.218.41-1.663 0l-10.793-9.964a1.04 1.04 0 01-.344-.768c0-.29.122-.563.344-.767l2.913-2.69a1.22 1.22 0 01.832-.318c.314 0 .61.113.831.318l10.793 9.964a1.029 1.029 0 010 1.535zm20.971-17.31a36.011 36.011 0 00-10.904-1.672c-3.74 0-7.412.564-10.916 1.676a34.869 34.869 0 00-4.824 1.938l9.157-8.453c1.755-1.62 4.093-2.513 6.583-2.513s4.827.893 6.583 2.513l9.155 8.453a34.8 34.8 0 00-4.834-1.941zm3.739 20c-.444.41-1.218.41-1.663 0l-2.913-2.69c-.222-.205-.344-.477-.344-.768s.122-.563.344-.767l10.793-9.964c.222-.205.517-.318.831-.318.314 0 .61.113.832.318l2.913 2.69a1.029 1.029 0 010 1.535zm1.301 17.875c1.643-2.596 2.514-5.56 2.514-8.583 0-3.025-.874-5.982-2.517-8.58l9.819-9.064c4.133 5.131 6.32 11.223 6.32 17.644 0 6.423-2.188 12.514-6.32 17.644zM36.71 56.252c2.812 1.516 6.023 2.32 9.298 2.32 3.274 0 6.487-.802 9.299-2.32l9.814 9.06c-5.558 3.816-12.155 5.835-19.113 5.835s-13.555-2.019-19.113-5.834zm-6.645-23.3c-1.643 2.596-2.515 5.557-2.515 8.581 0 3.025.872 5.986 2.515 8.582l-9.816 9.062c-4.133-5.13-6.32-11.219-6.32-17.644 0-6.422 2.187-12.513 6.32-17.644zm25.24-6.136c-2.812-1.517-6.02-2.322-9.297-2.322-3.275 0-6.488.803-9.299 2.32l-9.814-9.06c5.558-3.815 12.155-5.834 19.113-5.834 6.957 0 13.556 2.019 19.113 5.834zm-1.038 27.467c0 .302.062.594.174.868a18.08 18.08 0 01-8.433 2.07c-2.967 0-5.875-.719-8.433-2.072.112-.273.174-.564.174-.866a2.33 2.33 0 00-.773-1.723l-2.913-2.69a2.737 2.737 0 00-1.867-.713c-.326 0-.642.056-.938.16-1.464-2.362-2.244-5.044-2.244-7.784s.78-5.422 2.245-7.783c.296.103.611.16.937.16a2.74 2.74 0 001.867-.714l2.913-2.69a2.33 2.33 0 00.773-1.723c0-.301-.062-.593-.174-.867a18.08 18.08 0 018.433-2.07c2.968 0 5.874.72 8.432 2.072a2.273 2.273 0 00-.173.865c0 .652.275 1.264.773 1.723l2.913 2.69a2.74 2.74 0 001.867.713c.325 0 .64-.056.936-.16 1.465 2.363 2.246 5.043 2.246 7.784 0 2.74-.78 5.424-2.244 7.785-.942-.329-2.048-.146-2.805.553l-2.913 2.69a2.33 2.33 0 00-.772 1.722zm31.56-19.782L72.96 22.623c.19-.34.291-.72.291-1.114a2.33 2.33 0 00-.772-1.723l-2.913-2.69a2.738 2.738 0 00-1.867-.713 2.81 2.81 0 00-1.206.27L53.626 4.775c-2.032-1.876-4.737-2.908-7.618-2.908-2.881 0-5.586 1.032-7.618 2.908L25.523 16.653a2.813 2.813 0 00-1.206-.27c-.705 0-1.368.253-1.867.714l-2.913 2.69a2.33 2.33 0 00-.772 1.722c0 .395.101.773.291 1.114L6.189 34.5c-2.035 1.878-3.156 4.376-3.156 7.032 0 2.657 1.121 5.154 3.156 7.033l12.867 11.878c-.19.34-.291.72-.291 1.113 0 .652.274 1.264.772 1.723l2.913 2.69c.497.46 1.16.713 1.867.713a2.81 2.81 0 001.206-.27L38.39 78.293c2.031 1.875 4.737 2.908 7.618 2.908 2.88 0 5.586-1.033 7.618-2.908l12.867-11.878c.369.175.78.27 1.206.27a2.74 2.74 0 001.867-.714l2.913-2.69a2.33 2.33 0 00.772-1.723c0-.394-.102-.773-.291-1.113l12.867-11.878c4.201-3.878 4.201-10.187 0-14.065z"/><path d="M42.881 38.539c0-2.232 1.855-4.048 4.135-4.048s4.135 1.816 4.135 4.048-1.854 4.048-4.135 4.048-4.135-1.816-4.135-4.048m6.349 4.431c1.673-.804 2.832-2.485 2.832-4.431 0-2.723-2.264-4.939-5.046-4.939s-5.045 2.216-5.045 4.939c0 1.946 1.158 3.627 2.833 4.431-2.537.893-4.36 3.265-4.36 6.051a.45.45 0 00.455.446.45.45 0 00.455-.446c0-3.056 2.54-5.543 5.662-5.543 3.123 0 5.663 2.487 5.663 5.543a.45.45 0 00.455.446.45.45 0 00.455-.446c0-2.786-1.823-5.158-4.36-6.05m40.255 33.562c-.28 0-.506-.198-.506-.443v-2.847c0-.245.227-.443.506-.443s.505.198.505.443v2.847c0 .245-.227.443-.506.443"/><path d="M91.531 75.6h-3.084a.473.473 0 01-.48-.467c0-.257.215-.466.48-.466h3.084c.265 0 .48.209.48.466a.474.474 0 01-.48.467M4.55 11.2c-.28 0-.506-.198-.506-.443V7.91c0-.245.227-.443.506-.443s.506.198.506.443v2.847c0 .245-.227.443-.506.443"/><path d="M6.598 9.333H3.513a.473.473 0 01-.48-.466c0-.258.215-.467.48-.467h3.085c.265 0 .48.21.48.467a.473.473 0 01-.48.466m79.033-4.838c0-.421.367-.762.82-.762.454 0 .82.34.82.762 0 .42-.366.76-.82.76-.453 0-.82-.34-.82-.76m2.785 1.467a.722.722 0 01-.05-1.075c.307-.309.826-.33 1.16-.046s.356.765.05 1.075a.85.85 0 01-.605.246.855.855 0 01-.555-.2m-5.195.1a.722.722 0 01-.007-1.075.867.867 0 011.16-.007.722.722 0 01.007 1.076.852.852 0 01-.584.226.85.85 0 01-.576-.22m6.138 1.776c-.017-.42.337-.766.79-.783.452-.015.834.304.85.724.017.42-.337.78-.79.78h-.03c-.44 0-.803-.31-.82-.721M81.9 8.02c-.005-.42.358-.773.811-.778s.825.343.83.764c.006.42-.356.781-.81.781h-.01c-.45 0-.815-.35-.82-.767m6.707 2.852a.722.722 0 01-.036-1.075.868.868 0 011.16-.033c.33.288.347.772.036 1.077a.883.883 0 01-.599.238.855.855 0 01-.56-.207m-5.315.116a.722.722 0 01-.022-1.075.867.867 0 011.16-.02.721.721 0 01.022 1.075.848.848 0 01-.59.233.853.853 0 01-.57-.213m2.43.42c-.01-.42.348-.76.8-.77.454-.01.83.31.84.73.013.42-.346.765-.8.765h-.02c-.443 0-.809-.311-.82-.724M4.751 71.694c0-.42.338-.76.83-.76.41 0 .812.34.812.76s-.368.76-.82.76c-.455 0-.822-.34-.822-.76m2.777 1.468a.722.722 0 01-.05-1.074.868.868 0 011.16-.046.722.722 0 01.05 1.074.85.85 0 01-.606.246.855.855 0 01-.554-.2m-5.196.1a.721.721 0 01-.007-1.075.891.891 0 011.179-.006c.322.295.272.777.026 1.076v-.001c0 .15-.392.227-.603.227a.896.896 0 01-.595-.22m6.139 1.775c-.017-.42.336-.767.79-.782.452-.016.833.303.85.723.017.42-.337.78-.79.78H9.29c-.44 0-.803-.31-.82-.721m-7.459.182c-.005-.42.358-.773.81-.778.454-.005.826.343.832.763.006.42-.358.782-.81.782h-.01c-.449 0-.816-.35-.822-.767m6.709 2.852a.722.722 0 01-.036-1.076.868.868 0 011.16-.033c.33.288.347.769.037 1.075a.854.854 0 01-.6.24.856.856 0 01-.561-.206m-5.315.116a.722.722 0 01-.021-1.075.867.867 0 011.16-.02.721.721 0 01.021 1.075.854.854 0 01-.59.233.857.857 0 01-.57-.213m2.431.42c-.012-.42.347-.76.8-.77.453-.01.83.31.84.73.012.419-.346.765-.8.765h-.02c-.444 0-.81-.31-.82-.724"/></g></g></svg>