<svg fill="none" height="89" width="92" xmlns="http://www.w3.org/2000/svg"><mask id="a" height="21" maskUnits="userSpaceOnUse" width="37" x="46" y="68"><path clip-rule="evenodd" d="M46.398 68.577h35.936v20.327H46.398z" fill="#fff" fill-rule="evenodd"/></mask><mask id="b" height="21" maskUnits="userSpaceOnUse" width="37" x="0" y="68"><path clip-rule="evenodd" d="M.104 68.577H36.04v20.327H.104z" fill="#fff" fill-rule="evenodd"/></mask><mask id="c" height="2" maskUnits="userSpaceOnUse" width="7" x="38" y="87"><path clip-rule="evenodd" d="M38.633 87.509h5.501v.978h-5.5z" fill="#fff" fill-rule="evenodd"/></mask><g clip-rule="evenodd" fill-rule="evenodd"><path d="M90.598 88.487H6.245s-2.33-11.69 14.676-11.69c0 0 4.36-3.957 14.67-3.957 0 0 2.132-.198 2.132-4.353H50.61s-.52 4.155 3.16 4.155c3.679 0 10.947 1.318 13.895 4.207 0 0 22.933.482 22.933 11.638zm-43.236-64.5c0 2.486-2.026 4.5-4.524 4.5-2.5 0-4.525-2.014-4.525-4.5s2.026-4.5 4.525-4.5c2.498 0 4.524 2.015 4.524 4.5z" fill="#0fd7a1"/><g fill="#fff"><path d="M32.523 24.282c0-5.487 3.554-14.933 8.303-16.489 4.75 1.556 8.304 11.002 8.304 16.49v36.87H32.523zM34.87 66.21h11.913v-3.778H34.87zm-2.971-3.778h1.722v4.417c0 .352.28.638.624.638h13.162a.632.632 0 00.625-.638V62.43h1.722a.632.632 0 00.624-.639v-37.51c0-3.014-.975-6.995-2.544-10.388-1.865-4.032-4.294-6.654-6.84-7.383a.613.613 0 00-.336 0c-2.545.729-4.974 3.35-6.84 7.383-1.569 3.393-2.544 7.374-2.544 10.388v37.51c0 .353.28.64.625.64zm-6.871-30.568a5.47 5.47 0 011.033-3.199l1.008-1.408.967 1.45a5.48 5.48 0 01.927 3.045v10.954l-3.935 3.027zm-8.183 30.623h12.77a.643.643 0 00.654-.632.643.643 0 00-.653-.631H17.498v-3.801h12.118c.36 0 .653-.283.653-.632s-.293-.632-.653-.632H17.498v-.142c0-1.828.848-3.529 2.326-4.666l4.957-3.813.001-.001 5.24-4.031a.625.625 0 00.247-.495v-11.26a6.71 6.71 0 00-1.135-3.73l-1.496-2.244a.659.659 0 00-.538-.29.648.648 0 00-.548.273l-1.565 2.186a6.7 6.7 0 00-1.266 3.919v14.873l-4.71 3.624c-1.792 1.379-2.819 3.44-2.819 5.655v5.838c0 .35.292.632.653.632zm39.78-16.754l-3.934-3.027V31.751c0-1.082.32-2.135.926-3.045l.966-1.45 1.009 1.409a5.471 5.471 0 011.033 3.2zM52.037 56.16a.643.643 0 00-.653.632c0 .349.292.632.653.632h12.117v3.8H52.037a.643.643 0 00-.653.632c0 .35.293.632.653.632h12.77c.36 0 .653-.283.653-.632v-5.839c0-2.214-1.027-4.275-2.819-5.655l-4.71-3.623V31.864a6.701 6.701 0 00-1.265-3.919L55.1 25.76a.66.66 0 00-.537-.272h-.011a.658.658 0 00-.538.29l-1.496 2.245a6.71 6.71 0 00-1.135 3.73V43.01c0 .193.091.375.247.495l5.24 4.03v.001l4.957 3.813c1.478 1.138 2.326 2.84 2.326 4.666v.143z"/><path d="M40.826 18.712c2.37 0 4.3 1.918 4.3 4.275 0 2.358-1.93 4.276-4.3 4.276s-4.299-1.918-4.299-4.276c0-2.357 1.929-4.275 4.3-4.275zm0 9.775c3.05 0 5.53-2.467 5.53-5.5 0-3.032-2.48-5.5-5.53-5.5-3.05 0-5.53 2.468-5.53 5.5 0 3.033 2.48 5.5 5.53 5.5z"/></g></g><g mask="url(#a)"><path clip-rule="evenodd" d="M81.696 87.594h-2.21v-.004c0-6.373-5.05-11.557-11.259-11.557h-3.383a.647.647 0 00-.638.655c0 .362.286.655.638.655h3.383c5.505 0 9.984 4.597 9.984 10.247v.004H66.94c-.337-8.713-7.346-15.695-15.916-15.695h-.819c-.352 0-.638.293-.638.655s.286.655.638.655h.819c7.866 0 14.303 6.395 14.639 14.385H64.21c-8.92 0-16.176-7.447-16.176-16.602v-1.76a.647.647 0 00-.638-.655.647.647 0 00-.638.655v1.76c0 7.5 4.516 13.938 10.903 16.602H47.036c-.352 0-.638.293-.638.655s.286.655.638.655h34.66c.353 0 .638-.293.638-.655s-.285-.655-.638-.655z" fill="#fff" fill-rule="evenodd"/></g><g mask="url(#b)"><path clip-rule="evenodd" d="M35.402 87.594H24.777c6.388-2.663 10.903-9.101 10.903-16.602v-1.76c0-.361-.285-.655-.638-.655s-.638.294-.638.655v1.76c0 9.155-7.256 16.602-16.175 16.602h-1.453c.335-7.99 6.772-14.385 14.638-14.385h.819c.352 0 .638-.293.638-.655s-.286-.655-.638-.655h-.819c-8.57 0-15.579 6.982-15.915 15.695H4.228v-.004c0-5.65 4.478-10.247 9.983-10.247h3.383a.647.647 0 00.639-.655.647.647 0 00-.639-.655h-3.383c-6.208 0-11.26 5.184-11.26 11.557v.004H.742c-.352 0-.638.293-.638.655s.286.655.638.655h34.66c.353 0 .638-.293.638-.655s-.285-.655-.638-.655z" fill="#fff" fill-rule="evenodd"/></g><g mask="url(#c)"><path clip-rule="evenodd" d="M43.478 87.509H39.29c-.362 0-.656.219-.656.489s.294.49.656.49h4.19c.362 0 .655-.22.655-.49s-.293-.49-.656-.49z" fill="#fff" fill-rule="evenodd"/></g></svg>