<svg fill="none" height="84" width="92" xmlns="http://www.w3.org/2000/svg"><mask id="a" height="84" maskUnits="userSpaceOnUse" width="82" x="5" y="0"><path clip-rule="evenodd" d="M5.16 84h80.889V.933H5.159z" fill="#fff" fill-rule="evenodd"/></mask><g clip-rule="evenodd" fill-rule="evenodd"><path d="M86.049 54.6c0 11.083-9.96 20.067-22.245 20.067S41.56 65.683 41.56 54.6s9.959-20.067 22.244-20.067S86.05 43.517 86.05 54.6z" fill="#0fd7a1"/><g mask="url(#a)"><path d="M45.77 83.97h25.958v-2.74H45.769zm26.07.963H45.657c-.588 0-1.064-.39-1.064-.871v-2.924c0-.481.476-.871 1.064-.871H71.84c.588 0 1.064.39 1.064.871v2.924c0 .481-.476.871-1.064.871zm-22.225-4.666l-.978-.387c2.605-6.575 2.994-16.614 2.994-22.013h1.051c0 5.474-.399 15.662-3.067 22.4z" fill="#fff"/><path d="M68.894 81.2c-2.536-6.449-3.068-15.74-3.068-22.4h1.051c0 5.377.39 15.385 2.994 22.01zM48.842 56.908h19.813v-.883H48.842zm19.64.959H49.016c-.767 0-1.389-.49-1.389-1.095v-.61c0-.605.622-1.095 1.39-1.095h19.467c.766 0 1.388.49 1.388 1.094v.611c0 .604-.622 1.095-1.388 1.095zm-1.639-3.734l-1.186-.157 1.9-8.26h-2.585v2.968H60.01v-2.969h-2.555v2.97h-4.962v-2.97H49.91l1.896 8.013-1.184.162-1.972-8.33c-.094-.396.307-.76.836-.76h3.36c.47 0 .85.29.85.646v2.323h2.555v-2.238c0-.404.43-.731.96-.731h3.04c.531 0 .962.327.962.73v2.24h2.555v-2.448c0-.288.307-.522.686-.522h3.718c.427 0 .75.293.676.612z" fill="#fff"/><path d="M71.054 70.69c-.176-.244-.099-.566.167-.73 6.024-3.714 9.603-9.798 9.603-16.38 0-10.946-9.904-19.851-22.077-19.851-12.171 0-22.073 8.905-22.073 19.852 0 6.583 3.576 12.667 9.596 16.379.266.164.343.486.167.73a.629.629 0 01-.823.153C38.886 66.7 35.051 59.745 35.534 52.33 36.252 41.287 46.59 32.6 58.89 32.667c12.758.07 23.113 9.425 23.113 20.914 0 6.934-3.77 13.343-10.115 17.255-.276.17-.653.107-.835-.146z" fill="#fff"/><path d="M21.337 23.023c-4.708 0-8.524-3.413-8.524-7.623s3.816-7.623 8.524-7.623c4.708 0 8.525 3.413 8.525 7.623s-3.817 7.623-8.524 7.623zm0-22.09C12.403.933 5.16 7.41 5.16 15.4s7.243 14.467 16.177 14.467c8.935 0 16.178-6.477 16.178-14.467S30.272.933 21.337.933z" fill="#0fd7a1"/><g fill="#fff"><path d="M25.679 9.266c-.284-.14-.381-.449-.217-.69l1.846-2.723c.164-.242.527-.325.81-.185.284.14.381.448.218.69l-1.847 2.723c-.163.241-.526.324-.81.185zm1.799 3.527a.548.548 0 01.2-.749l2.95-1.704a.547.547 0 11.547.949l-2.95 1.704a.547.547 0 01-.747-.2zM11.3 22.126a.548.548 0 01.2-.748l2.95-1.704a.547.547 0 11.547.948l-2.95 1.704a.547.547 0 01-.747-.2zm2.468-5.326h-3.06a.48.48 0 01-.493-.467.48.48 0 01.492-.466h3.06a.48.48 0 01.493.466.48.48 0 01-.492.467zm18.2 0h-3.06a.48.48 0 01-.493-.467.48.48 0 01.492-.466h3.06a.48.48 0 01.493.466.48.48 0 01-.492.467zM14.45 12.993L11.5 11.29a.548.548 0 01.548-.949l2.95 1.704a.548.548 0 01-.548.95zm16.178 9.334l-2.95-1.705a.548.548 0 01.548-.949l2.949 1.705a.548.548 0 01-.547.949zM16.185 9.08L14.34 6.359c-.164-.242-.066-.55.218-.69s.646-.057.81.185l1.846 2.722c.164.242.067.551-.217.69-.284.14-.646.057-.81-.184zm5.658-1.613c-.28 0-.506-.204-.506-.454V4.188c0-.251.227-.455.506-.455s.506.204.506.455v2.825c0 .25-.227.454-.506.454zM24.772 47.6c-.337 0-.61-.25-.61-.559V16.383c0-1.13-.93-2.118-2.16-2.194-1.35-.083-2.477.9-2.477 2.119V47.04c0 .309-.274.559-.61.559-.338 0-.61-.25-.61-.559V16.4c0-1.742 1.459-3.244 3.36-3.33 2.032-.092 3.717 1.395 3.717 3.237V47.04c0 .309-.273.559-.61.559z"/><path d="M16.484 48.475c5.747 0 10.456 4.105 10.75 9.25.015.285.273.51.588.51.338 0 .61-.257.592-.563-.313-5.535-5.23-9.985-11.339-10.256v-9.773c0-1.714-1.538-3.11-3.43-3.11s-3.43 1.396-3.43 3.11v17.16c0 7.865 7.057 14.264 15.731 14.264h1.302c.326 0 .591-.24.591-.536 0-.297-.265-.537-.591-.537h-1.302c-8.022 0-14.548-5.917-14.548-13.191v-17.16c0-1.123 1.008-2.037 2.247-2.037s2.247.914 2.247 2.037V47.94c0 .296.265.536.592.536zm14.756-3.137c0 1.154-1.04 2.094-2.32 2.094-1.278 0-2.318-.94-2.318-2.094v-9.476c0-1.154 1.04-2.093 2.319-2.093 1.278 0 2.319.939 2.319 2.093zm-2.32-12.671c-1.94 0-3.52 1.418-3.537 3.167h-.001v9.504c0 1.762 1.588 3.195 3.539 3.195s3.539-1.433 3.539-3.195v-9.504h-.002c-.017-1.75-1.596-3.167-3.537-3.167zm5.771 12.681v-8.482c0-1.115.933-2.093 2.169-2.164 1.346-.076 2.468.887 2.468 2.082v.24c0 .575.786.85 1.218.425a.01.01 0 00.003-.006v-.558c0-1.717-1.464-3.201-3.37-3.281-2.028-.085-3.708 1.374-3.708 3.18v8.564c0 .324.055.636.155.93.175.511.967.521 1.153.013l.018-.047a.425.425 0 00-.002-.286 1.865 1.865 0 01-.104-.61zm1.123 22.176h-.76c-.283 0-.541.29-.57.692-.032.461.222.85.54.85h1.193v-.014a7.835 7.835 0 001.892-.335c.375-.115.543-.738.31-1.173l-.026-.05c-.124-.233-.33-.338-.53-.277a7.04 7.04 0 01-2.049.307z"/></g></g></g></svg>