<svg fill="none" height="75" width="75" xmlns="http://www.w3.org/2000/svg"><mask id="a" height="46" maskUnits="userSpaceOnUse" width="46" x="22" y="23"><path clip-rule="evenodd" d="M43.3 23.75a2.5 2.5 0 00-2.45 2.013l-.738 3.688-3.539 1.468-3.126-2.087a2.503 2.503 0 00-3.155.31l-2.404 2.405a2.498 2.498 0 00-.309 3.154l2.086 3.125-1.465 3.537-3.688.737a2.502 2.502 0 00-2.012 2.451v3.4a2.502 2.502 0 002.012 2.45l3.688.736 1.465 3.54-2.086 3.127c-.663.99-.533 2.31.309 3.154l2.408 2.405a2.497 2.497 0 003.154.308l3.126-2.085 3.536 1.465.738 3.686a2.5 2.5 0 002.45 2.014h3.4a2.502 2.502 0 002.449-2.014l.739-3.686 3.54-1.465 3.125 2.085c.99.663 2.312.534 3.154-.308l2.405-2.408a2.501 2.501 0 00.309-3.156l-2.086-3.125 1.465-3.537 3.688-.737a2.5 2.5 0 002.012-2.449v-3.4a2.5 2.5 0 00-2.012-2.45l-3.688-.738-1.469-3.54 2.086-3.125a2.499 2.499 0 00-.309-3.156l-2.404-2.405a2.503 2.503 0 00-3.155-.308l-3.126 2.087-3.535-1.465-.739-3.688A2.502 2.502 0 0046.7 23.75z" fill="#fff" fill-rule="evenodd"/></mask><mask id="b" height="11" maskUnits="userSpaceOnUse" width="73" x="1" y="1"><path clip-rule="evenodd" d="M6.251 1.25a5.001 5.001 0 00-5.001 5v5h72.5v-5a5 5 0 00-5-5z" fill="#fff" fill-rule="evenodd"/></mask><mask id="c" height="11" maskUnits="userSpaceOnUse" width="10" x="40" y="41"><path clip-rule="evenodd" d="M40 46.251a5 5 0 1010-.001 5 5 0 00-10 .001z" fill="#fff" fill-rule="evenodd"/></mask><g mask="url(#a)"><path clip-rule="evenodd" d="M17.5 73.75h55v-55h-55z" fill="#03d79e" fill-rule="evenodd"/></g><g mask="url(#b)"><path clip-rule="evenodd" d="M-3.75 16.25h82.5v-20h-82.5z" fill="#00ffa4" fill-rule="evenodd"/></g><g mask="url(#c)"><path clip-rule="evenodd" d="M35 56.25h20v-20H35z" fill="#00ffa4" fill-rule="evenodd"/></g><g clip-rule="evenodd" fill-rule="evenodd"><path d="M1.253 62.694a.75.75 0 00-.534 1.283c.142.14.325.247.531.217h.003a.75.75 0 000-1.5z" fill="#fff"/><path d="M27.048 49.441l.138.728-2.524-.503a1.768 1.768 0 01-1.412-1.712V44.55a1.754 1.754 0 011.411-1.714l2.525-.505-.138.728a17.163 17.163 0 000 6.382zM8.25 21.25c0-1.654 1.346-3 3-3h30c1.654 0 3 1.346 3 3V23h-.95a3.276 3.276 0 00-3.185 2.617l-.651 3.255-.272.093c-.785.266-1.557.589-2.297.959l-.26.13-2.774-1.852a3.276 3.276 0 00-4.1.408l-2.407 2.402a3.278 3.278 0 00-.403 4.103l1.848 2.771-.13.259c-.37.739-.692 1.512-.959 2.296l-.093.273-3.259.651a3.277 3.277 0 00-2.608 3.186v3.399a3.276 3.276 0 002.617 3.185l3.255.652.093.273c.267.784.589 1.556.959 2.295l.13.26-1.852 2.774a3.277 3.277 0 00.408 4.1l2.402 2.408a3.277 3.277 0 004.103.403l2.77-1.848.26.13c.741.37 1.513.693 2.296.958l.273.093.651 3.259a3.277 3.277 0 003.187 2.608h.948V73h-36zm38.451 3.25a1.754 1.754 0 011.713 1.411l.506 2.524-.728-.137a17.168 17.168 0 00-6.383 0l-.729.137.505-2.523a1.766 1.766 0 011.711-1.412zM29.623 36.425l-1.424-2.134a1.762 1.762 0 01.22-2.218l.322-.323.007.005 2.081-2.081a1.748 1.748 0 012.195-.217l2.139 1.427-.598.42a18.296 18.296 0 00-4.522 4.522zm5.553 25.203l-2.135 1.423a1.751 1.751 0 01-.972.293c-.452 0-.901-.172-1.238-.507l-2.406-2.405a1.753 1.753 0 01-.216-2.21l1.425-2.135.419.599a18.35 18.35 0 004.523 4.522zM61.75 46.25C61.75 55.486 54.236 63 45 63s-16.75-7.514-16.75-16.75S35.764 29.5 45 29.5c9.226.011 16.739 7.524 16.75 16.75zm-4.784-16.791a1.768 1.768 0 012.211.212l2.404 2.407c.588.59.679 1.519.215 2.21l-1.424 2.136-.42-.6a18.324 18.324 0 00-4.521-4.522l-.599-.42zm4.83 28.756c.459.691.37 1.621-.213 2.21l-.002.002-2.402 2.404a1.765 1.765 0 01-2.21.217l-2.138-1.425.6-.42a18.324 18.324 0 004.521-4.522l.42-.599zm-13.381 8.373A1.764 1.764 0 0146.703 68h-3.404a1.752 1.752 0 01-1.713-1.411l-.506-2.523.729.137c2.117.397 4.265.397 6.383 0l.728-.137zm14.537-23.529l-.137-.728 2.521.504a1.765 1.765 0 011.414 1.711v3.404a1.756 1.756 0 01-1.412 1.715l-2.523.505.137-.729c.4-2.117.4-4.265 0-6.382zM2 10.5V6.25A4.255 4.255 0 016.25 2h62.5A4.255 4.255 0 0173 6.25v4.25zm4.251 64H68.75a5.766 5.766 0 005.75-5.75V6.25A5.767 5.767 0 0068.749.5H6.25A5.767 5.767 0 00.5 6.251V58.75a.75.75 0 001.5 0V12h71v56.75A4.255 4.255 0 0168.75 73h-23v-3.5h.95a3.275 3.275 0 003.185-2.617l.651-3.255.274-.093a18.468 18.468 0 002.296-.958l.259-.13 2.774 1.851a3.279 3.279 0 004.101-.408l2.407-2.402a3.277 3.277 0 00.404-4.103l-1.85-2.772.13-.259c.368-.733.691-1.505.959-2.295l.093-.272 3.26-.652a3.278 3.278 0 002.607-3.187V44.55a3.276 3.276 0 00-2.617-3.185l-3.255-.651-.093-.273a18.197 18.197 0 00-.959-2.295l-.13-.259 1.852-2.776a3.276 3.276 0 00-.407-4.1l-2.403-2.408a3.278 3.278 0 00-4.103-.402l-2.77 1.847-.259-.129a18.323 18.323 0 00-2.296-.959l-.274-.093-.651-3.254A3.277 3.277 0 0046.698 23h-.948v-1.75c0-2.481-2.018-4.5-4.5-4.5h-30a4.505 4.505 0 00-4.5 4.5V73h-.5A4.255 4.255 0 012 68.75c0-.413-.337-.75-.75-.75s-.75.337-.75.75a5.766 5.766 0 005.751 5.75z" fill="#fff"/><path d="M69.5 6.25a.75.75 0 00-.75-.75h-.5V5a.75.75 0 00-1.5 0v.5h-.5a.75.75 0 000 1.5h.5v.5a.75.75 0 001.5 0V7h.5a.75.75 0 00.75-.75zm-8.25-.75h-2.5a.75.75 0 000 1.5h2.5a.75.75 0 000-1.5z" fill="#00343d"/><path d="M58.25 46.25c0-.413-.337-.75-.75-.75s-.75.337-.75.75c-.008 6.472-5.279 11.743-11.749 11.75A.75.75 0 0045 59.5c7.297-.008 13.241-5.952 13.25-13.25zM45 33c-7.297.008-13.241 5.953-13.25 13.25a.75.75 0 001.5 0c.008-6.47 5.279-11.742 11.749-11.75A.751.751 0 0045 33zm0 17.5c-2.344 0-4.25-1.907-4.25-4.25S42.656 42 45 42s4.25 1.907 4.25 4.25S47.344 50.5 45 50.5zm0-10a5.766 5.766 0 00-5.75 5.75c0 3.171 2.58 5.75 5.75 5.75 3.171 0 5.75-2.58 5.75-5.75S48.171 40.5 45 40.5zM27.5 23H13.75a.75.75 0 000 1.5H27.5a.75.75 0 000-1.5zm-6.25 10h-7.5a.75.75 0 000 1.5h7.5a.75.75 0 000-1.5zM20 38h-6.25a.75.75 0 000 1.5H20a.75.75 0 000-1.5zm-2.5 5h-3.75a.75.75 0 000 1.5h3.75a.75.75 0 000-1.5zm0 5h-3.75a.75.75 0 000 1.5h3.75a.75.75 0 000-1.5zm2.5 5h-6.25a.75.75 0 000 1.5H20a.75.75 0 000-1.5zm1.25 5h-7.5a.75.75 0 000 1.5h7.5a.75.75 0 000-1.5zm1.25 5h-8.75a.75.75 0 000 1.5h8.75a.75.75 0 000-1.5zm5 5H13.75a.75.75 0 000 1.5H27.5a.75.75 0 000-1.5zm-6.25-40h-7.5a.75.75 0 000 1.5h7.5a.75.75 0 000-1.5z" fill="#fff"/></g></svg>